<svg id="building" xmlns="http://www.w3.org/2000/svg" width="60.049" height="66" viewBox="0 0 60.049 66">
  <path id="Path_38" data-name="Path 38" d="M120.049,78.733V47.315a6.748,6.748,0,0,0-6.74-6.74H66.74A6.748,6.748,0,0,0,60,47.315V78.734a6.748,6.748,0,0,0,6.74,6.74H83.2l4.776,15.93a.914.914,0,0,0,.105.23,1.717,1.717,0,0,0,2.9,0,.919.919,0,0,0,.1-.23l4.776-15.93h17.45A6.748,6.748,0,0,0,120.049,78.733Zm-24.874,4.9a.919.919,0,0,0-.88.655L89.53,100.183,84.766,84.29a.919.919,0,0,0-.88-.655H66.74a4.908,4.908,0,0,1-4.9-4.9V47.315a4.908,4.908,0,0,1,4.9-4.9h46.568a4.908,4.908,0,0,1,4.9,4.9V78.734a4.908,4.908,0,0,1-4.9,4.9Z" transform="translate(-60 -40.575)" fill="#4b606c"/>
  <path id="Path_39" data-name="Path 39" d="M194.282,169.813h7.837a.919.919,0,1,0,0-1.838h-7.837a.919.919,0,1,0,0,1.838Z" transform="translate(-172.934 -148.459)" fill="#4b606c"/>
  <path id="Path_40" data-name="Path 40" d="M296.649,207.008h1.661a.919.919,0,1,0,0-1.838h-1.661a.919.919,0,1,0,0,1.838Z" transform="translate(-259.62 -179.956)" fill="#4b606c"/>
  <path id="Path_41" data-name="Path 41" d="M194.282,200.21h7.837a.919.919,0,1,0,0-1.838h-7.837a.919.919,0,1,0,0,1.838Z" transform="translate(-172.934 -174.2)" fill="#4b606c"/>
  <path id="Path_42" data-name="Path 42" d="M194.282,230.608h7.837a.919.919,0,1,0,0-1.838h-7.837a.919.919,0,1,0,0,1.838Z" transform="translate(-172.934 -199.941)" fill="#4b606c"/>
  <path id="Path_43" data-name="Path 43" d="M194.282,261.006h7.837a.919.919,0,1,0,0-1.838h-7.837a.919.919,0,1,0,0,1.838Z" transform="translate(-172.934 -225.683)" fill="#4b606c"/>
  <path id="Path_44" data-name="Path 44" d="M195.429,81.1h-8.1V74.922a.919.919,0,0,0-.919-.919h-1.965V69.626a.919.919,0,0,0-.919-.919h-3.32V64.373a.919.919,0,1,0-1.838,0v4.333H173.8a.919.919,0,0,0-.919.919V74h-1.966a.919.919,0,0,0-.919.919V99a.919.919,0,0,0,.919.919h24.51a.919.919,0,0,0,.919-.919V82.018A.919.919,0,0,0,195.429,81.1ZM174.723,70.545h7.886V74h-7.886Zm10.77,27.532H171.838V75.841h13.655Zm9.017,0h-7.179V82.938h7.179Z" transform="translate(-153.15 -59.949)" fill="#4b606c"/>
  <path id="Path_45" data-name="Path 45" d="M296.649,234.624h1.661a.919.919,0,1,0,0-1.838h-1.661a.919.919,0,1,0,0,1.838Z" transform="translate(-259.62 -203.342)" fill="#4b606c"/>
  <path id="Path_46" data-name="Path 46" d="M298.31,260.4h-1.661a.919.919,0,1,0,0,1.838h1.661a.919.919,0,1,0,0-1.838Z" transform="translate(-259.62 -226.726)" fill="#4b606c"/>
  <path id="Path_47" data-name="Path 47" d="M158.666,394.952c0-1.667-1.606-3.083-4.758-4.207a43.152,43.152,0,0,0-10.747-1.987.919.919,0,1,0-.136,1.833c9.416.7,13.8,3.019,13.8,4.369v.015a1.191,1.191,0,0,1-.423.8c-1.838,1.871-8.8,3.765-18.546,3.765a54.542,54.542,0,0,1-13.848-1.576c-3.573-.984-5.173-2.215-5.173-3,0-1.369,4.437-3.72,13.959-4.422a.919.919,0,1,0-.135-1.833,43.765,43.765,0,0,0-10.845,1.993c-3.2,1.134-4.818,2.569-4.818,4.261,0,4.211,10.493,6.414,20.859,6.414,9.34,0,17.32-1.734,19.857-4.315A2.928,2.928,0,0,0,158.666,394.952Z" transform="translate(-108.268 -335.374)" fill="#4b606c"/>
</svg>
