<svg xmlns="http://www.w3.org/2000/svg" width="17.617" height="16.855" viewBox="0 0 17.617 16.855">
  <g id="favori-icon" transform="translate(0 -8.235)">
    <g id="Group_1084" data-name="Group 1084" transform="translate(0 8.235)">
      <path id="Path_341" data-name="Path 341" d="M17.322,15.491a.863.863,0,0,0,.259-.87.833.833,0,0,0-.722-.555l-4.35-.74a1.544,1.544,0,0,1-.907-.648L9.548,8.753a.788.788,0,0,0-1.481,0L6.013,12.659a1.552,1.552,0,0,1-.907.666l-4.35.74a.833.833,0,0,0-.722.555.863.863,0,0,0,.259.87l3.073,3.165a1.582,1.582,0,0,1,.352,1.055l-.629,4.368a.919.919,0,0,0,.185.759.82.82,0,0,0,1.037.13l3.942-1.962a1.635,1.635,0,0,1,1.111,0l3.961,1.943a1.125,1.125,0,0,0,.463.111.739.739,0,0,0,.555-.241.919.919,0,0,0,.185-.759L13.9,19.692a1.387,1.387,0,0,1,.352-1.055Zm-3.665,2.591a2.335,2.335,0,0,0-.574,1.758l.629,4.368v.037c-.019,0-.019-.019-.037-.019L9.733,22.265a2.067,2.067,0,0,0-.925-.185,2.425,2.425,0,0,0-.925.185L3.922,24.208c-.019,0-.019.019-.037.019V24.19l.629-4.368a2.286,2.286,0,0,0-.574-1.758L.886,14.917C.868,14.9.868,14.9.868,14.88H.9l4.35-.74a2.309,2.309,0,0,0,1.5-1.092L8.808,9.142c0-.019.019-.019.019-.037,0,.019.019.019.019.037L10.9,13.047a2.326,2.326,0,0,0,1.5,1.092l4.35.74h.037a.142.142,0,0,0-.056.037Z" transform="translate(0 -8.235)" fill="#0d4b6f"/>
    </g>
  </g>
</svg>
