<svg xmlns="http://www.w3.org/2000/svg" width="67.232" height="67.23" viewBox="0 0 67.232 67.23">
  <g id="green" transform="translate(0 -0.008)">
    <g id="Group_204" data-name="Group 204" transform="translate(0 0.007)">
      <g id="Group_203" data-name="Group 203" transform="translate(0 0)">
        <path id="Path_67" data-name="Path 67" d="M67.183,65.569A22.308,22.308,0,0,0,59.345,54a21.981,21.981,0,0,0-7.6-3.794,2.65,2.65,0,0,1,2.637-2.423,1.313,1.313,0,1,0,0-2.626,5.262,5.262,0,0,0-3.961,1.8,5.262,5.262,0,0,0-3.961-1.8,1.313,1.313,0,1,0,0,2.626,2.653,2.653,0,0,1,2.526,1.853,22.482,22.482,0,0,0-5.5-.092,11.542,11.542,0,0,0-8.3-5.4l.026-.024,4.8-4.8a18.692,18.692,0,0,0,4.226.47c.4,0,.828-.012,1.267-.041a19.669,19.669,0,0,0,12.79-5.944,19.67,19.67,0,0,0,5.944-12.79,17.813,17.813,0,0,0-.65-6.3,1.314,1.314,0,0,0-.92-.853l-.014,0a18.168,18.168,0,0,0-4.734-.661H57.9a1.313,1.313,0,0,0-.015,2.626,16.016,16.016,0,0,1,3.382.388,16.58,16.58,0,0,1,.339,4.747,16.925,16.925,0,0,1-5.173,10.992,16.865,16.865,0,0,1-14.155,5.1L51.9,27.424a1.313,1.313,0,0,0-1.857-1.857L40.418,35.2a16.934,16.934,0,0,1,5.1-14.154A19.091,19.091,0,0,1,48.792,18.4a1.313,1.313,0,0,0-1.4-2.219,21.735,21.735,0,0,0-3.725,3,19.669,19.669,0,0,0-5.944,12.79,19.041,19.041,0,0,0,.429,5.492l-3.219,3.218V16.85c.152,0,.312.006.482.006,2.574,0,7.181-.466,10.226-3.454C49.73,9.384,49.181,2.37,49.07,1.292A1.313,1.313,0,0,0,47.846.056C47.221,0,40.138-.512,35.955,3.591c-3.766,3.7-3.726,9.792-3.621,11.584a1.314,1.314,0,0,0-.032.284v5.018a20.259,20.259,0,0,0-3.04-3.86,18.74,18.74,0,0,0-12.185-5.662,16.984,16.984,0,0,0-6.01.621,1.313,1.313,0,0,0-.853.919l0,.012a18.455,18.455,0,0,0,5.073,18.089,18.739,18.739,0,0,0,12.185,5.662c.417.027.82.039,1.206.039a18.134,18.134,0,0,0,3.628-.36v8.178a11.542,11.542,0,0,0-8.555,5.429,22.482,22.482,0,0,0-5.5.092,2.653,2.653,0,0,1,2.526-1.853,1.313,1.313,0,1,0,0-2.626,5.262,5.262,0,0,0-3.961,1.8,5.262,5.262,0,0,0-3.961-1.8,1.313,1.313,0,1,0,0,2.626A2.65,2.65,0,0,1,15.483,50.2,21.983,21.983,0,0,0,7.887,54,22.308,22.308,0,0,0,.049,65.569a1.313,1.313,0,0,0,1.264,1.668H65.919a1.313,1.313,0,0,0,1.264-1.668ZM37.795,5.465c2.553-2.5,6.736-2.829,8.726-2.83.054,2.042-.163,6.379-2.723,8.891-1.922,1.886-4.812,2.484-6.987,2.645l3.955-3.955A1.313,1.313,0,1,0,38.908,8.36l-3.889,3.889C35.232,10.115,35.9,7.329,37.795,5.465ZM32.3,31.039c-.015.238-.035.465-.058.68L24.58,24.055a1.313,1.313,0,0,0-1.857,1.857l7.664,7.664a16.013,16.013,0,0,1-13.247-4.84,15.862,15.862,0,0,1-4.575-14.845,15.685,15.685,0,0,1,4.451-.31,16,16,0,0,1,10.388,4.891A16,16,0,0,1,32.3,28.86c0,.036,0,.07.006.105v2.074ZM10.4,64.611h0a11.99,11.99,0,0,1,6.143-6.09,1.313,1.313,0,1,0-1.057-2.4,14.6,14.6,0,0,0-7.913,8.494H3.128A19.551,19.551,0,0,1,24.265,52.255a1.313,1.313,0,0,0,1.361-.7,8.972,8.972,0,0,1,15.979,0,1.314,1.314,0,0,0,1.361.7A19.551,19.551,0,0,1,64.1,64.611Z" transform="translate(0 -0.007)" fill="#4b606c"/>
      </g>
    </g>
    <g id="Group_206" data-name="Group 206" transform="translate(51.443 13.853)">
      <g id="Group_205" data-name="Group 205">
        <path id="Path_68" data-name="Path 68" d="M394.437,106.411a1.313,1.313,0,0,0-1.617-.913l-.1.029a1.313,1.313,0,1,0,.724,2.525l.085-.024A1.313,1.313,0,0,0,394.437,106.411Z" transform="translate(-391.764 -105.45)" fill="#4b606c"/>
      </g>
    </g>
    <g id="Group_208" data-name="Group 208" transform="translate(19.992 54.885)">
      <g id="Group_207" data-name="Group 207">
        <path id="Path_69" data-name="Path 69" d="M153.636,417.92h-.081a1.313,1.313,0,0,0,.007,2.626h.075a1.313,1.313,0,1,0,0-2.626Z" transform="translate(-152.248 -417.92)" fill="#4b606c"/>
      </g>
    </g>
  </g>
</svg>
