<svg xmlns="http://www.w3.org/2000/svg" width="71.735" height="69.505" viewBox="0 0 71.735 69.505">
  <g id="Group_119" data-name="Group 119" transform="translate(0 27.372) rotate(-30)">
    <g id="Group_118" data-name="Group 118" transform="translate(0 0)">
      <path id="Path_56" data-name="Path 56" d="M52.339,20.315h-.8V9.355a5.085,5.085,0,0,0-5.079-5.079H24.435L9.576.03l-.013,0-.013,0L9.524.018,9.482.01l-.037,0L9.4,0h-.08L9.289,0l-.046,0L9.213.013l-.046.01L9.138.03,9.092.045l-.026.01L9.02.074,9,.085,8.952.109,8.929.123,8.887.151,8.866.168,8.827.2,8.807.218,8.772.252l-.02.023-.03.036L8.7.338,8.678.374,8.659.406c-.007.012-.013.024-.02.036s-.011.024-.017.037S8.612.5,8.608.515,8.6.542,8.594.555s-.006.017-.009.026,0,.009,0,.013l0,.013L7.661,4.275H5.079A5.084,5.084,0,0,0,0,9.337c0,.006,0,.011,0,.017v27.8a.8.8,0,1,0,1.6,0v-24.1a5.059,5.059,0,0,0,3.476,1.38H46.461a3.479,3.479,0,0,1,3.472,3.475v5.614H41.11c-.023,0-.046,0-.069,0s-.051.006-.076.01l-.011,0c-.021,0-.041.01-.062.016l-.013,0-.053.019-.02.007-.043.02-.028.013-.032.019-.036.022-.022.016c-.014.01-.027.02-.041.03l-.016.015c-.014.012-.028.024-.041.038l-.022.024c-.01.011-.021.022-.031.034s-.032.041-.047.063h0L36.168,30.3a.789.789,0,0,0-.075.141c-.008.018-.014.037-.02.056l-.006.017c-.006.02-.011.04-.015.06l0,.016c0,.018-.006.036-.008.054s0,.015,0,.023,0,.03,0,.044,0,.023,0,.034,0,.022,0,.033,0,.03,0,.046,0,.015,0,.022,0,.037.008.055,0,.01,0,.015c0,.02.009.04.015.06l.006.017c.006.019.012.037.02.056a.8.8,0,0,0,.075.141L40.444,37.6h0a.832.832,0,0,0,.056.073l.02.022q.02.022.042.043l.026.024c.016.013.032.026.048.038l.022.017a.8.8,0,0,0,.075.045l.02.01c.021.01.041.02.063.028l.025.009.062.019.026.007c.022.005.044.009.066.012l.024,0a.811.811,0,0,0,.084.005h8.829v5.614a3.479,3.479,0,0,1-3.475,3.475H5.08A3.479,3.479,0,0,1,1.6,43.571s0-.008,0-.012v-3.2a.8.8,0,1,0-1.6,0v3.209c0,.008,0,.016,0,.025A5.084,5.084,0,0,0,5.08,48.65H46.459a5.085,5.085,0,0,0,5.079-5.078h0V37.957h.8a2.408,2.408,0,0,0,2.405-2.405V22.72A2.409,2.409,0,0,0,52.339,20.315ZM9.933,1.8l14.15,4.043h0l9.484,2.71H8.245Zm40,12.409a5.059,5.059,0,0,0-3.475-1.38H5.079a3.475,3.475,0,0,1,0-6.95H7.26L6.592,8.553H5.08a.8.8,0,0,0,0,1.6H45.388a.8.8,0,0,0,0-1.6H39.407L30.048,5.879H46.459a3.479,3.479,0,0,1,3.475,3.475Zm3.207,21.342h0a.8.8,0,0,1-.8.8H41.54L37.8,30.74l3.742-5.614h10.8l.033,0a2.4,2.4,0,0,0,.768-.137Zm-.8-12.03h-.8v-1.6h.8a.8.8,0,0,1,0,1.6Z" fill="#4b606c"/>
    </g>
  </g>
</svg>
