<svg xmlns="http://www.w3.org/2000/svg" width="42.382" height="26" viewBox="0 0 42.382 26">
  <g id="train" transform="translate(0 -110.148)">
    <g id="Group_63" data-name="Group 63" transform="translate(0 110.148)">
      <g id="Group_62" data-name="Group 62">
        <path id="Path_7" data-name="Path 7" d="M41.559,134.367h-8.8a2.842,2.842,0,0,0,.142-.89v-.89h4.084a5.582,5.582,0,0,0,5.359-5.77,5.963,5.963,0,0,0-1.569-4.08l-.533-.574-4.631-4.986h0l-2.359-2.54a13.645,13.645,0,0,0-10.061-4.487H.831a.893.893,0,0,0,0,1.781H23.189a12.058,12.058,0,0,1,8.891,3.966l.948,1.021H23.5a3.393,3.393,0,0,0,0,6.767H39.313L39.6,124a4.123,4.123,0,0,1,1.085,2.821,3.859,3.859,0,0,1-3.7,3.989H.831a.893.893,0,0,0,0,1.781H4.512v.89a2.843,2.843,0,0,0,.142.89H.874a.893.893,0,0,0,0,1.781H14.766a.893.893,0,0,0,0-1.781H9.332a2.843,2.843,0,0,0,.142-.89v-.89H27.939v.89a2.843,2.843,0,0,0,.142.89H21.22a.893.893,0,0,0,0,1.781H41.559a.893.893,0,0,0,0-1.781ZM23.5,121.9a1.607,1.607,0,0,1,0-3.206H34.682l2.977,3.205H23.5ZM7.82,133.477a.829.829,0,1,1-1.654,0v-.89H7.82v.89Zm23.427,0a.829.829,0,1,1-1.654,0v-.89h1.654v.89Z" transform="translate(-0.004 -110.148)" fill="#707070"/>
      </g>
    </g>
    <g id="Group_65" data-name="Group 65" transform="translate(17.086 134.318)">
      <g id="Group_64" data-name="Group 64">
        <path id="Path_8" data-name="Path 8" d="M208.871,382.14a.914.914,0,1,0,.268.647A.922.922,0,0,0,208.871,382.14Z" transform="translate(-207.309 -381.872)" fill="#707070"/>
      </g>
    </g>
    <g id="Group_67" data-name="Group 67" transform="translate(0 116.85)">
      <g id="Group_66" data-name="Group 66">
        <path id="Path_9" data-name="Path 9" d="M15.19,186.071H4.412a.915.915,0,1,0,0,1.83H15.19a1.647,1.647,0,1,1,0,3.293H.919a.915.915,0,1,0,0,1.83H15.19a3.476,3.476,0,0,0,0-6.953Z" transform="translate(-0.004 -186.071)" fill="#707070"/>
      </g>
    </g>
    <g id="Group_69" data-name="Group 69" transform="translate(0 116.902)">
      <g id="Group_68" data-name="Group 68">
        <path id="Path_10" data-name="Path 10" d="M1.562,186.339a.914.914,0,1,0,.268.647A.92.92,0,0,0,1.562,186.339Z" transform="translate(0 -186.071)" fill="#707070"/>
      </g>
    </g>
  </g>
</svg>
