<svg xmlns="http://www.w3.org/2000/svg" width="30.849" height="30.877" viewBox="0 0 30.849 30.877">
  <g id="destination" transform="translate(-0.233)">
    <g id="Group_687" data-name="Group 687" transform="translate(0.233 9.281)">
      <g id="Group_686" data-name="Group 686" transform="translate(0)">
        <path id="Path_70" data-name="Path 70" d="M7.8,153.9a7.579,7.579,0,0,0-7.571,7.571c0,2.592,1.233,5.379,3.665,8.283.361.432.721.831,1.067,1.2-1.57.429-2.513,1.2-2.513,2.1,0,1.591,2.757,2.449,5.352,2.449s5.352-.858,5.352-2.449c0-.9-.942-1.668-2.511-2.1a24.647,24.647,0,0,0,1.941-2.309.453.453,0,1,0-.729-.537,24.309,24.309,0,0,1-2.339,2.7.453.453,0,0,0-.2.2c-.654.642-1.2,1.119-1.516,1.379-.309-.258-.85-.728-1.5-1.362a.453.453,0,0,0-.227-.225c-2.051-2.063-4.943-5.627-4.943-9.323a6.665,6.665,0,0,1,13.33,0,10.2,10.2,0,0,1-1.625,5.152.453.453,0,0,0,.778.463,11.082,11.082,0,0,0,1.753-5.615A7.579,7.579,0,0,0,7.8,153.9Zm-.277,19.423a.453.453,0,0,0,.554,0A23.015,23.015,0,0,0,9.9,171.706c1.527.311,2.348.911,2.348,1.343,0,.322-.442.7-1.153.992a9.027,9.027,0,0,1-3.293.551c-2.714,0-4.446-.914-4.446-1.544,0-.432.821-1.032,2.349-1.343A23.008,23.008,0,0,0,7.527,173.325Z" transform="translate(-0.233 -153.902)" fill="#5e6d77"/>
      </g>
    </g>
    <g id="Group_689" data-name="Group 689" transform="translate(4.512 13.56)">
      <g id="Group_688" data-name="Group 688">
        <path id="Path_71" data-name="Path 71" d="M74.479,224.854a3.265,3.265,0,0,0-1.969.654.453.453,0,1,0,.542.725,2.38,2.38,0,1,1-.867,1.253.453.453,0,1,0-.87-.25,3.292,3.292,0,1,0,3.164-2.382Z" transform="translate(-71.187 -224.854)" fill="#5e6d77"/>
      </g>
    </g>
    <g id="Group_691" data-name="Group 691" transform="translate(19.236 0)">
      <g id="Group_690" data-name="Group 690" transform="translate(0 0)">
        <path id="Path_72" data-name="Path 72" d="M323.627,13.154c.23-.247.468-.514.706-.8,1.885-2.251,2.841-4.416,2.841-6.433a5.924,5.924,0,0,0-11.381-2.306.453.453,0,1,0,.834.353,5.019,5.019,0,0,1,9.642,1.953c0,3.742-3.928,7.326-5.018,8.249-.24-.2-.618-.535-1.061-.97a.452.452,0,0,0-.2-.2c-1.563-1.574-3.755-4.28-3.755-7.079a.453.453,0,1,0-.906,0c0,2.017.956,4.182,2.841,6.433.238.284.475.55.705.8-1.167.351-1.841.948-1.841,1.666,0,.606.492,1.14,1.385,1.5a8.554,8.554,0,0,0,5.667,0c.893-.364,1.385-.9,1.385-1.5C325.468,14.1,324.794,13.505,323.627,13.154ZM321.25,15.9c-2.143,0-3.312-.715-3.312-1.082,0-.239.532-.677,1.668-.918a17.684,17.684,0,0,0,1.368,1.214.453.453,0,0,0,.554,0A17.675,17.675,0,0,0,322.9,13.9a4.151,4.151,0,0,1,1.251.453c.261.159.416.333.416.466C324.563,15.187,323.394,15.9,321.25,15.9Z" transform="translate(-315.327 0)" fill="#5e6d77"/>
      </g>
    </g>
    <g id="Group_693" data-name="Group 693" transform="translate(22.524 3.289)">
      <g id="Group_692" data-name="Group 692">
        <path id="Path_73" data-name="Path 73" d="M372.494,54.532a2.635,2.635,0,1,0,2.635,2.635A2.638,2.638,0,0,0,372.494,54.532Zm0,4.364a1.729,1.729,0,1,1,1.729-1.729A1.731,1.731,0,0,1,372.494,58.9Z" transform="translate(-369.859 -54.532)" fill="#5e6d77"/>
      </g>
    </g>
    <g id="Group_695" data-name="Group 695" transform="translate(18.236 14.368)">
      <g id="Group_694" data-name="Group 694">
        <path id="Path_74" data-name="Path 74" d="M299.8,238.239H299.6a3.415,3.415,0,0,0-.45.03.453.453,0,1,0,.119.9,2.516,2.516,0,0,1,.33-.022h.207a.453.453,0,0,0,0-.906Z" transform="translate(-298.753 -238.239)" fill="#5e6d77"/>
      </g>
    </g>
    <g id="Group_697" data-name="Group 697" transform="translate(16.738 27.952)">
      <g id="Group_696" data-name="Group 696">
        <path id="Path_75" data-name="Path 75" d="M274.962,463.5h0l-.6,0a.453.453,0,0,0,0,.906h0l.6,0a.453.453,0,0,0,0-.906Z" transform="translate(-273.911 -463.496)" fill="#5e6d77"/>
      </g>
    </g>
    <g id="Group_699" data-name="Group 699" transform="translate(18.772 20.233)">
      <g id="Group_698" data-name="Group 698">
        <path id="Path_76" data-name="Path 76" d="M308.693,335.489h-.6a.453.453,0,1,0,0,.906h.6a.453.453,0,1,0,0-.906Z" transform="translate(-307.642 -335.489)" fill="#5e6d77"/>
      </g>
    </g>
    <g id="Group_701" data-name="Group 701" transform="translate(16.243 15.144)">
      <g id="Group_700" data-name="Group 700">
        <path id="Path_77" data-name="Path 77" d="M266.879,251.266a.453.453,0,0,0-.64-.026,3.4,3.4,0,0,0-.456.516.453.453,0,1,0,.736.528,2.5,2.5,0,0,1,.335-.378A.453.453,0,0,0,266.879,251.266Z" transform="translate(-265.698 -251.12)" fill="#5e6d77"/>
      </g>
    </g>
    <g id="Group_703" data-name="Group 703" transform="translate(19.13 27.941)">
      <g id="Group_702" data-name="Group 702">
        <path id="Path_78" data-name="Path 78" d="M314.629,463.314h0l-.6,0a.453.453,0,0,0,0,.906h0l.6,0a.453.453,0,0,0,0-.906Z" transform="translate(-313.578 -463.314)" fill="#5e6d77"/>
      </g>
    </g>
    <g id="Group_705" data-name="Group 705" transform="translate(14.346 27.963)">
      <g id="Group_704" data-name="Group 704">
        <path id="Path_79" data-name="Path 79" d="M235.3,463.675h0l-.6,0a.453.453,0,0,0,0,.906h0l.6,0a.453.453,0,0,0,0-.906Z" transform="translate(-234.246 -463.675)" fill="#5e6d77"/>
      </g>
    </g>
    <g id="Group_707" data-name="Group 707" transform="translate(16.594 19.414)">
      <g id="Group_706" data-name="Group 706">
        <path id="Path_80" data-name="Path 80" d="M272.687,322.357a2.5,2.5,0,0,1-.4-.311.453.453,0,0,0-.628.653,3.4,3.4,0,0,0,.542.425.453.453,0,1,0,.483-.766Z" transform="translate(-271.523 -321.919)" fill="#5e6d77"/>
      </g>
    </g>
    <g id="Group_709" data-name="Group 709" transform="translate(15.694 17.27)">
      <g id="Group_708" data-name="Group 708">
        <path id="Path_81" data-name="Path 81" d="M257.548,287.321a2.5,2.5,0,0,1-.046-.477v-.025a.453.453,0,0,0-.448-.458h-.005a.453.453,0,0,0-.453.448v.036a3.408,3.408,0,0,0,.063.65.453.453,0,0,0,.889-.173Z" transform="translate(-256.597 -286.361)" fill="#5e6d77"/>
      </g>
    </g>
    <g id="Group_711" data-name="Group 711" transform="translate(21.164 20.233)">
      <g id="Group_710" data-name="Group 710">
        <path id="Path_82" data-name="Path 82" d="M348.36,335.489h-.6a.453.453,0,0,0,0,.906h.6a.453.453,0,1,0,0-.906Z" transform="translate(-347.309 -335.489)" fill="#5e6d77"/>
      </g>
    </g>
    <g id="Group_713" data-name="Group 713" transform="translate(28.255 20.724)">
      <g id="Group_712" data-name="Group 712">
        <path id="Path_83" data-name="Path 83" d="M466.117,344.075a4.308,4.308,0,0,0-.554-.372.453.453,0,1,0-.444.789,3.415,3.415,0,0,1,.438.293.453.453,0,0,0,.561-.711Z" transform="translate(-464.888 -343.645)" fill="#5e6d77"/>
      </g>
    </g>
    <g id="Group_715" data-name="Group 715" transform="translate(26.306 27.875)">
      <g id="Group_714" data-name="Group 714">
        <path id="Path_84" data-name="Path 84" d="M434.072,462.6a.453.453,0,0,0-.51-.387,3.407,3.407,0,0,1-.452.032h-.085a.453.453,0,0,0,0,.906h.087a4.324,4.324,0,0,0,.571-.04A.453.453,0,0,0,434.072,462.6Z" transform="translate(-432.575 -462.211)" fill="#5e6d77"/>
      </g>
    </g>
    <g id="Group_717" data-name="Group 717" transform="translate(28.559 26.852)">
      <g id="Group_716" data-name="Group 716">
        <path id="Path_85" data-name="Path 85" d="M471.161,445.391a.453.453,0,0,0-.64-.016,3.423,3.423,0,0,1-.409.333.453.453,0,1,0,.516.744,4.331,4.331,0,0,0,.517-.422A.453.453,0,0,0,471.161,445.391Z" transform="translate(-469.918 -445.25)" fill="#5e6d77"/>
      </g>
    </g>
    <g id="Group_719" data-name="Group 719" transform="translate(29.991 24.786)">
      <g id="Group_718" data-name="Group 718">
        <path id="Path_86" data-name="Path 86" d="M494.36,410.995a.453.453,0,0,0-.529.361,3.4,3.4,0,0,1-.138.508.453.453,0,1,0,.853.3,4.291,4.291,0,0,0,.174-.645A.453.453,0,0,0,494.36,410.995Z" transform="translate(-493.667 -410.987)" fill="#5e6d77"/>
      </g>
    </g>
    <g id="Group_721" data-name="Group 721" transform="translate(29.855 22.45)">
      <g id="Group_720" data-name="Group 720">
        <path id="Path_87" data-name="Path 87" d="M492.51,373.152a4.276,4.276,0,0,0-.234-.626.453.453,0,1,0-.821.383,3.367,3.367,0,0,1,.185.493.453.453,0,1,0,.87-.25Z" transform="translate(-491.412 -372.265)" fill="#5e6d77"/>
      </g>
    </g>
    <g id="Group_723" data-name="Group 723" transform="translate(23.556 20.233)">
      <g id="Group_722" data-name="Group 722">
        <path id="Path_88" data-name="Path 88" d="M388.026,335.489h-.6a.453.453,0,0,0,0,.906h.6a.453.453,0,1,0,0-.906Z" transform="translate(-386.975 -335.489)" fill="#5e6d77"/>
      </g>
    </g>
    <g id="Group_725" data-name="Group 725" transform="translate(21.522 27.93)">
      <g id="Group_724" data-name="Group 724">
        <path id="Path_89" data-name="Path 89" d="M354.294,463.134h0l-.6,0a.453.453,0,0,0,0,.906h0l.6,0a.453.453,0,0,0,0-.906Z" transform="translate(-353.243 -463.134)" fill="#5e6d77"/>
      </g>
    </g>
    <g id="Group_727" data-name="Group 727" transform="translate(25.949 20.233)">
      <g id="Group_726" data-name="Group 726">
        <path id="Path_90" data-name="Path 90" d="M427.711,335.494c-.064,0-.129,0-.193,0h-.425a.453.453,0,0,0,0,.906h.425q.077,0,.153,0h.02a.453.453,0,0,0,.02-.905Z" transform="translate(-426.64 -335.49)" fill="#5e6d77"/>
      </g>
    </g>
    <g id="Group_729" data-name="Group 729" transform="translate(23.914 27.92)">
      <g id="Group_728" data-name="Group 728">
        <path id="Path_91" data-name="Path 91" d="M393.959,462.955h0l-.6,0a.453.453,0,0,0,0,.906h0l.6,0a.453.453,0,0,0,0-.906Z" transform="translate(-392.908 -462.955)" fill="#5e6d77"/>
      </g>
    </g>
  </g>
</svg>
