<svg xmlns="http://www.w3.org/2000/svg" width="70.168" height="66.637" viewBox="0 0 70.168 66.637">
  <path id="slippers" d="M68.326,47.622l1.1-16.791a16.846,16.846,0,1,0-33.62,0L36.017,34a1.03,1.03,0,1,0,2.055-.135L37.864,30.7a14.786,14.786,0,1,1,29.509,0l-1.06,16.149a42.921,42.921,0,0,0-13.694-2.038,42.926,42.926,0,0,0-13.694,2.038l-.583-8.879a1.03,1.03,0,0,0-2.056.135l.625,9.521A3.518,3.518,0,0,0,35.084,50.4a3.517,3.517,0,0,0-1.828-2.777l1.1-16.791a16.846,16.846,0,0,0-16.81-17.95A16.845,16.845,0,0,0,.739,30.831L.947,34A1.03,1.03,0,0,0,3,33.864L2.795,30.7A14.786,14.786,0,0,1,17.549,14.941,14.786,14.786,0,0,1,32.3,30.7l-1.06,16.149a42.924,42.924,0,0,0-13.694-2.038A42.925,42.925,0,0,0,3.855,46.845l-.583-8.879a1.03,1.03,0,1,0-2.055.135l.625,9.521a3.489,3.489,0,0,0,2.508,6.457l.585,13.365a12.627,12.627,0,0,0,25.229,0l.136-3.11a1.03,1.03,0,0,0-2.058-.09l-.136,3.109a10.567,10.567,0,0,1-21.114,0L6.38,53.366a36.589,36.589,0,0,1,11.169-1.574,36.585,36.585,0,0,1,11.169,1.574l-.3,6.768a1.03,1.03,0,0,0,.984,1.074h.046a1.03,1.03,0,0,0,1.028-.985l.269-6.147a3.522,3.522,0,0,0,4.111-2.109,3.452,3.452,0,0,0,.224-.95,3.459,3.459,0,0,0,.224.95,3.52,3.52,0,0,0,3.251,2.218,3.482,3.482,0,0,0,.86-.109L40,67.443a12.627,12.627,0,0,0,25.229,0l.585-13.365a3.488,3.488,0,0,0,2.507-6.456Zm-35.385,3.6a1.448,1.448,0,0,1-1.873.8,37.059,37.059,0,0,0-13.52-2.289,37.057,37.057,0,0,0-13.52,2.289,1.431,1.431,0,1,1-1.061-2.657,39.3,39.3,0,0,1,14.581-2.5,39.3,39.3,0,0,1,14.581,2.5A1.441,1.441,0,0,1,32.941,51.218ZM63.175,67.353a10.567,10.567,0,0,1-21.113,0L41.45,53.367a36.588,36.588,0,0,1,11.169-1.574,36.59,36.59,0,0,1,11.169,1.574Zm4.836-16.135a1.448,1.448,0,0,1-1.873.8,37.059,37.059,0,0,0-13.52-2.289A37.057,37.057,0,0,0,39.1,52.022a1.431,1.431,0,1,1-1.061-2.657,39.3,39.3,0,0,1,14.581-2.5,39.3,39.3,0,0,1,14.581,2.5A1.441,1.441,0,0,1,68.011,51.218Z" transform="translate(0 -12.881)" fill="#4b606c"/>
</svg>
