<svg id="luggage" xmlns="http://www.w3.org/2000/svg" width="66" height="66" viewBox="0 0 66 66">
  <path id="Path_48" data-name="Path 48" d="M29.7,19.8H22V6.6h1.1a1.1,1.1,0,0,0,1.1-1.1V1.1A1.1,1.1,0,0,0,23.1,0H9.9A1.1,1.1,0,0,0,8.8,1.1V5.5A1.1,1.1,0,0,0,9.9,6.6H11V19.8H3.3A3.3,3.3,0,0,0,0,23.1V58.3a3.3,3.3,0,0,0,3.3,3.3v3.3A1.1,1.1,0,0,0,4.4,66H8.8a1.1,1.1,0,0,0,1.1-1.1V61.6H23.1v3.3A1.1,1.1,0,0,0,24.2,66h4.4a1.1,1.1,0,0,0,1.1-1.1V61.6A3.3,3.3,0,0,0,33,58.3V23.1A3.3,3.3,0,0,0,29.7,19.8ZM11,2.2H22V4.4H11Zm2.2,4.4h6.6V19.8H13.2ZM7.7,63.8H5.5V61.6H7.7Zm19.8,0H25.3V61.6h2.2Zm3.3-5.5a1.1,1.1,0,0,1-1.1,1.1H3.3a1.1,1.1,0,0,1-1.1-1.1V23.1A1.1,1.1,0,0,1,3.3,22H29.7a1.1,1.1,0,0,1,1.1,1.1Zm0,0" fill="#4b606c"/>
  <path id="Path_49" data-name="Path 49" d="M119.465,204.8h2.2v28.6h-2.2Zm0,0" transform="translate(-104.065 -178.401)" fill="#4b606c"/>
  <path id="Path_50" data-name="Path 50" d="M59.734,204.8h2.2v28.6h-2.2Zm0,0" transform="translate(-52.034 -178.401)" fill="#4b606c"/>
  <path id="Path_51" data-name="Path 51" d="M179.2,204.8h2.2v28.6h-2.2Zm0,0" transform="translate(-156.099 -178.401)" fill="#4b606c"/>
  <path id="Path_52" data-name="Path 52" d="M300.566,311.6h-4.4v-1.1a3.3,3.3,0,0,0-3.3-3.3h-8.8a3.3,3.3,0,0,0-3.3,3.3v1.1h-4.4a3.3,3.3,0,0,0-3.3,3.3v15.4a3.3,3.3,0,0,0,3.3,3.3h24.2a3.3,3.3,0,0,0,3.3-3.3V314.9A3.3,3.3,0,0,0,300.566,311.6Zm-17.6-1.1a1.1,1.1,0,0,1,1.1-1.1h8.8a1.1,1.1,0,0,1,1.1,1.1v1.1h-11Zm18.7,19.8a1.1,1.1,0,0,1-1.1,1.1h-24.2a1.1,1.1,0,0,1-1.1-1.1V314.9a1.1,1.1,0,0,1,1.1-1.1h24.2a1.1,1.1,0,0,1,1.1,1.1Zm0,0" transform="translate(-237.866 -267.599)" fill="#4b606c"/>
  <path id="Path_53" data-name="Path 53" d="M384,392.535h2.2v8.8H384Zm0,0" transform="translate(-334.5 -341.935)" fill="#4b606c"/>
  <path id="Path_54" data-name="Path 54" d="M332.8,392.535H335v8.8h-2.2Zm0,0" transform="translate(-289.901 -341.935)" fill="#4b606c"/>
  <path id="Path_55" data-name="Path 55" d="M435.2,392.535h2.2v8.8h-2.2Zm0,0" transform="translate(-379.099 -341.935)" fill="#4b606c"/>
</svg>
