<svg xmlns="http://www.w3.org/2000/svg" width="20.569" height="20.568" viewBox="0 0 20.569 20.568">
  <g id="world" transform="translate(-0.005 -0.05)">
    <g id="Group_88" data-name="Group 88" transform="translate(0 0.05)">
      <path id="Path_21" data-name="Path 21" d="M10.291.05A10.286,10.286,0,0,0,.833,6.289L.706,6.33l.05.149A10.284,10.284,0,1,0,10.291.05Zm8.067,15.47-.528-.528V13.763a.342.342,0,0,0-.034-.153l-1.337-2.67V9.649a.343.343,0,0,0-.153-.285l-1.028-.686A.343.343,0,0,0,15,8.631l-1.26.315-2.116-.908L11.337,6l.807-.806h1.732l.583.876a.343.343,0,0,0,.229.148l2.057.343a.34.34,0,0,0,.165-.013l1.89-.634a9.565,9.565,0,0,1-.442,9.606ZM16.944,3.428l-.557.372-1.554-.311-1.008-.336a.337.337,0,0,0-.191-.008l-1.275.318L11.8,3.278l.414-.828h1.159a.343.343,0,0,0,.153-.036l1.186-.593a9.634,9.634,0,0,1,2.232,1.607ZM6.533,1.5l.823.549A.342.342,0,0,0,7.49,2.1l1.661.277-.162.485-.866.289a.343.343,0,0,0-.185.148L6.953,4.943l-1.581.949L3.04,6.225a.343.343,0,0,0-.295.339V7.592a.343.343,0,0,0,.1.242l.585.585v.589L2,8.058,1.488,6.506A9.655,9.655,0,0,1,6.533,1.5ZM5.557,12.74l-1.55-.31-.576-1.149v-.806L4.708,9.2l.473.946a.343.343,0,0,0,.307.19H7.694l.929,1.548a.343.343,0,0,0,.294.166H9.87l-.24,1.2-1.3,1.3a.343.343,0,0,0-.1.242v.857L7,16.574a.343.343,0,0,0-.137.274v1.238l-.426-.141-.6-1.506V13.078a.343.343,0,0,0-.28-.336ZM4.526,18.01A9.6,9.6,0,0,1,1.107,7.532l.285.854a.343.343,0,0,0,.135.177L3.236,9.7l-.39.39a.343.343,0,0,0-.1.242V11.36a.343.343,0,0,0,.036.153l.686,1.371a.343.343,0,0,0,.24.183l1.44.288V16.5a.343.343,0,0,0,.024.127l.686,1.714a.343.343,0,0,0,.21.2l1.028.343a.337.337,0,0,0,.107.018.343.343,0,0,0,.343-.343V17.02l1.234-.926a.343.343,0,0,0,.137-.274v-.887l1.271-1.271a.343.343,0,0,0,.094-.175l.343-1.714a.343.343,0,0,0-.336-.41H9.11L8.182,9.816a.343.343,0,0,0-.294-.166H5.7L5.111,8.468a.343.343,0,0,0-.252-.185.336.336,0,0,0-.3.1l-.445.443V8.278a.343.343,0,0,0-.1-.242L3.431,7.45V6.861l2.106-.3a.344.344,0,0,0,.128-.046L7.379,5.486A.343.343,0,0,0,7.5,5.369l.963-1.605.908-.3a.339.339,0,0,0,.217-.217l.343-1.028a.343.343,0,0,0-.269-.446L7.674,1.439l-.349-.232a9.573,9.573,0,0,1,6.593.245l-.626.313H12a.343.343,0,0,0-.309.19l-.686,1.371a.343.343,0,0,0,.2.478l1.028.343a.337.337,0,0,0,.191.008l1.276-.32.934.311a.252.252,0,0,0,.041.011L16.39,4.5a.34.34,0,0,0,.257-.051l.78-.52a9.672,9.672,0,0,1,1.031,1.378l-1.687.562-1.826-.3-.6-.905a.343.343,0,0,0-.284-.153H12a.343.343,0,0,0-.242.1L10.731,5.636a.343.343,0,0,0-.1.291l.343,2.4a.343.343,0,0,0,.206.266l2.4,1.028a.339.339,0,0,0,.218.017l1.224-.306.748.5V11.02a.342.342,0,0,0,.034.153l1.337,2.67v1.29a.343.343,0,0,0,.1.242l.717.718A9.6,9.6,0,0,1,4.526,18.012Z" transform="translate(0 -0.05)" fill="#707070"/>
    </g>
  </g>
</svg>
