<svg xmlns="http://www.w3.org/2000/svg" width="16.491" height="20.824" viewBox="0 0 16.491 20.824">
  <path id="person" d="M64.168,33.788a17.442,17.442,0,0,0,7.577,2.023,15.778,15.778,0,0,0,7.589-2.029.332.332,0,0,0,.157-.283,10.8,10.8,0,0,0-2.25-6.874,7.3,7.3,0,0,0-3.693-2.464,4.325,4.325,0,0,0,2.29-4.824,4.175,4.175,0,0,0-8.185,0,4.325,4.325,0,0,0,2.29,4.824,7.3,7.3,0,0,0-3.693,2.464A10.8,10.8,0,0,0,64,33.5a.332.332,0,0,0,.168.29ZM68.2,20.283a3.551,3.551,0,1,1,3.55,3.634,3.593,3.593,0,0,1-3.55-3.634ZM66.744,27.05a6.3,6.3,0,0,1,10,0,10.068,10.068,0,0,1,2.1,6.256,15.516,15.516,0,0,1-7.1,1.845,16.987,16.987,0,0,1-7.1-1.852A10.066,10.066,0,0,1,66.744,27.05Z" transform="translate(-63.5 -15.488)" fill="none" stroke="#4b606c" stroke-width="1"/>
</svg>
