<svg xmlns="http://www.w3.org/2000/svg" xmlns:xlink="http://www.w3.org/1999/xlink" width="40" height="42" viewBox="0 0 40 42">
  <defs>
    <clipPath id="clip-path">
      <rect id="Rectangle_109" data-name="Rectangle 109" width="40" height="42" rx="14" transform="translate(0.215)" fill="#d1d1d1"/>
    </clipPath>
  </defs>
  <g id="Mask_Group_9" data-name="Mask Group 9" transform="translate(-0.215)" clip-path="url(#clip-path)">
    <path id="google-plus" d="M21.858,27.479a2.894,2.894,0,0,1-1.683,2.742,6.975,6.975,0,0,1-6.806-.539,3.1,3.1,0,0,1,.29-5.227,7.587,7.587,0,0,1,3.767-.9C19.459,23.528,21.8,25.62,21.858,27.479ZM18.29,18.226a2.931,2.931,0,0,0,1.976-2.948,7.019,7.019,0,0,0-1.915-4.636,2.852,2.852,0,0,0-2.981-.751,2.507,2.507,0,0,0-1.717,2.232,6.467,6.467,0,0,0,1.32,5.033A2.86,2.86,0,0,0,18.29,18.226ZM41.005,0V41.005H0V0ZM22.416,22.829c-.733-.626-1.5-1.211-2.216-1.857a1.4,1.4,0,0,1,0-2.385c.33-.31.7-.572,1.055-.861a4.85,4.85,0,0,0,.591-7.048c-.159-.185-.408-.314-.441-.717a1.936,1.936,0,0,0,1.938-.718c.124-.178.426-.292.337-.541-.095-.264-.4-.157-.605-.158-1.959-.007-3.917.007-5.876,0a7.63,7.63,0,0,0-2.583.467,5.694,5.694,0,0,0-3.84,6.129,5.068,5.068,0,0,0,5.181,4.355c.539-.009.7.188.609.713a1.932,1.932,0,0,0,.261,1.476c.418.6.282.786-.438.867a10.833,10.833,0,0,0-5.2,1.708,4.182,4.182,0,0,0-1.952,4.163A4.233,4.233,0,0,0,12.141,31.8a10.614,10.614,0,0,0,5.526.562A8.639,8.639,0,0,0,21.9,30.716C24.458,28.778,25.025,25.059,22.416,22.829Zm9.4-3.728h-2.56v-2.56H27.993V19.1h-2.56v1.263h2.56v2.56h1.263v-2.56h2.56Z" transform="translate(-0.191)" fill="#d1d1d1"/>
  </g>
</svg>
