<svg xmlns="http://www.w3.org/2000/svg" xmlns:xlink="http://www.w3.org/1999/xlink" width="41" height="42" viewBox="0 0 41 42">
  <defs>
    <clipPath id="clip-path">
      <rect id="Rectangle_107" data-name="Rectangle 107" width="41" height="42" rx="14" transform="translate(-0.214)" fill="#d1d1d1"/>
    </clipPath>
  </defs>
  <g id="Mask_Group_11" data-name="Mask Group 11" transform="translate(0.214)" clip-path="url(#clip-path)">
    <path id="twitter" d="M38.048,0H2.957A2.957,2.957,0,0,0,0,2.957V38.048a2.957,2.957,0,0,0,2.957,2.957H38.048a2.957,2.957,0,0,0,2.957-2.957V2.957A2.957,2.957,0,0,0,38.048,0ZM29.864,15.986q.014.3.013.608A13.3,13.3,0,0,1,16.488,29.983h0a13.32,13.32,0,0,1-7.213-2.114,9.571,9.571,0,0,0,1.122.065,9.442,9.442,0,0,0,5.845-2.014,4.711,4.711,0,0,1-4.4-3.269,4.69,4.69,0,0,0,2.125-.081A4.707,4.707,0,0,1,10.2,17.958c0-.021,0-.04,0-.06a4.673,4.673,0,0,0,2.131.588A4.71,4.71,0,0,1,10.871,12.2a13.361,13.361,0,0,0,9.7,4.917,4.708,4.708,0,0,1,8.019-4.292,9.439,9.439,0,0,0,2.988-1.142,4.724,4.724,0,0,1-2.069,2.6,9.385,9.385,0,0,0,2.7-.741A9.564,9.564,0,0,1,29.864,15.986Zm0,0" transform="translate(-0.349)" fill="#d1d1d1"/>
  </g>
</svg>
