<svg xmlns="http://www.w3.org/2000/svg" width="32.304" height="23.968" viewBox="0 0 32.304 23.968">
  <g id="Group_371" data-name="Group 371" transform="translate(-922 -626)">
    <path id="Path_60" data-name="Path 60" d="M1.042,74.407A1.041,1.041,0,0,1,0,73.364,7.3,7.3,0,0,1,7.294,66.07H25.009a1.042,1.042,0,0,1,0,2.084H7.294a5.216,5.216,0,0,0-5.21,5.21A1.041,1.041,0,0,1,1.042,74.407Zm0,0" transform="translate(922 564.098)" fill="#1c8fd1"/>
    <path id="Path_61" data-name="Path 61" d="M380.913,10.421a1.042,1.042,0,0,1-1.042-1.042V1.043a1.042,1.042,0,0,1,1.62-.867l6.252,4.168a1.042,1.042,0,0,1,0,1.734l-6.252,4.168A1.04,1.04,0,0,1,380.913,10.421Zm1.042-7.432V7.432l3.332-2.222Zm0,0" transform="translate(566.096 626)" fill="#1c8fd1"/>
    <path id="Path_62" data-name="Path 62" d="M117.855,190.016H100.14a1.042,1.042,0,0,1,0-2.084h17.715a5.216,5.216,0,0,0,5.21-5.21,1.042,1.042,0,1,1,2.084,0A7.3,7.3,0,0,1,117.855,190.016Zm0,0" transform="translate(829.155 455.783)" fill="#1c8fd1"/>
    <path id="Path_63" data-name="Path 63" d="M7.294,225.138a1.041,1.041,0,0,1-.578-.175L.464,220.795a1.042,1.042,0,0,1,0-1.734l6.252-4.168a1.042,1.042,0,0,1,1.62.867V224.1a1.042,1.042,0,0,1-1.042,1.042Zm-4.374-5.21,3.332,2.222v-4.443Zm0,0" transform="translate(922 424.829)" fill="#1c8fd1"/>
  </g>
</svg>
